<svg xmlns="http://www.w3.org/2000/svg" version="1.1" xmlns:xlink="http://www.w3.org/1999/xlink" xmlns:svgjs="http://svgjs.dev/svgjs" width="2000" height="934" viewBox="0 0 2000 934"><g transform="matrix(1,0,0,1,-1.2121212121212466,-0.7236895860982031)"><svg viewBox="0 0 396 185" data-background-color="#ffffff" preserveAspectRatio="xMidYMid meet" height="934" width="2000" xmlns="http://www.w3.org/2000/svg" xmlns:xlink="http://www.w3.org/1999/xlink"><g id="tight-bounds" transform="matrix(1,0,0,1,0.2400000000000091,0.1433432263684864)"><svg viewBox="0 0 395.52 184.71331354726303" height="184.71331354726303" width="395.52"><g><svg viewBox="0 0 395.52 184.71331354726303" height="184.71331354726303" width="395.52"><g transform="matrix(1,0,0,1,0,132.4365179468964)"><svg viewBox="0 0 395.52 52.276795600366626" height="52.276795600366626" width="395.52"><g id="textblocktransform"><svg viewBox="0 0 395.52 52.276795600366626" height="52.276795600366626" width="395.52" id="textblock"><g><svg viewBox="0 0 395.52 52.276795600366626" height="52.276795600366626" width="395.52"><g transform="matrix(1,0,0,1,0,0)"><svg width="395.52" viewBox="0.9 -35.65 277.63 36.05" height="52.276795600366626" data-palette-color="#5cb841"><g class="undefined-text-0" data-fill-palette-color="primary" id="text-0"><path d="M35.45 0L31.3 0 27.4-9.05 9-9.05 5.1 0 0.9 0 16.4-35.25 19.95-35.25 35.45 0ZM18.2-30.5L10.45-12.45 25.95-12.45 18.2-30.5ZM62.3-11.5L68.45 0 63.95 0 57.95-11.3Q56.85-13.35 55.37-14.13 53.9-14.9 51.35-14.9L51.35-14.9 44.75-14.9 44.75 0 40.7 0 40.7-35.25 55.2-35.25Q60.95-35.25 63.97-32.7 67-30.15 67-25.2L67-25.2Q67-21.1 64.67-18.57 62.35-16.05 58.05-15.4L58.05-15.4Q59.4-15 60.42-14.05 61.45-13.1 62.3-11.5L62.3-11.5ZM44.75-18.3L54.85-18.3Q58.95-18.3 60.97-20 63-21.7 63-25.15L63-25.15Q63-28.55 61-30.2 59-31.85 54.85-31.85L54.85-31.85 44.75-31.85 44.75-18.3ZM95-18.1Q98.05-17.3 99.72-15.1 101.4-12.9 101.4-9.6L101.4-9.6Q101.4-4.95 98.35-2.48 95.3 0 89.7 0L89.7 0 75 0 75-35.25 89.15-35.25Q94.6-35.25 97.6-32.85 100.6-30.45 100.6-26.05L100.6-26.05Q100.6-23.2 99.12-21.15 97.65-19.1 95-18.1L95-18.1ZM79.05-31.85L79.05-19.6 88.55-19.6Q92.5-19.6 94.52-21.2 96.55-22.8 96.55-25.85L96.55-25.85Q96.55-31.85 88.55-31.85L88.55-31.85 79.05-31.85ZM89.3-3.4Q93.45-3.4 95.42-4.93 97.4-6.45 97.4-9.7L97.4-9.7Q97.4-16.2 89.3-16.2L89.3-16.2 79.05-16.2 79.05-3.4 89.3-3.4ZM123.44 0.4Q118.54 0.4 114.92-1.8 111.29-4 109.34-8.05 107.39-12.1 107.39-17.6L107.39-17.6Q107.39-23.15 109.32-27.23 111.24-31.3 114.87-33.48 118.49-35.65 123.44-35.65L123.44-35.65Q128.39-35.65 132.02-33.48 135.64-31.3 137.57-27.23 139.49-23.15 139.49-17.65L139.49-17.65Q139.49-12.15 137.54-8.08 135.59-4 131.97-1.8 128.34 0.4 123.44 0.4L123.44 0.4ZM123.44-3.1Q129.04-3.1 132.17-6.88 135.29-10.65 135.29-17.65L135.29-17.65Q135.29-24.65 132.19-28.4 129.09-32.15 123.44-32.15L123.44-32.15Q117.84-32.15 114.72-28.38 111.59-24.6 111.59-17.65L111.59-17.65Q111.59-10.7 114.72-6.9 117.84-3.1 123.44-3.1L123.44-3.1ZM168.64 0L146.89 0 146.89-35.25 150.99-35.25 150.99-3.5 168.64-3.5 168.64 0ZM177.99 0L173.89 0 173.89-35.25 177.99-35.25 177.99 0ZM197.89 0.4Q189.64 0.4 184.69-4.05L184.69-4.05 186.29-7.2Q188.89-5 191.61-4.05 194.34-3.1 197.94-3.1L197.94-3.1Q202.19-3.1 204.49-4.75 206.79-6.4 206.79-9.4L206.79-9.4Q206.79-11.15 205.69-12.25 204.59-13.35 202.79-14 200.99-14.65 197.94-15.35L197.94-15.35Q193.84-16.3 191.21-17.35 188.59-18.4 186.96-20.35 185.34-22.3 185.34-25.45L185.34-25.45Q185.34-28.45 186.91-30.78 188.49-33.1 191.41-34.38 194.34-35.65 198.19-35.65L198.19-35.65Q201.84-35.65 205.01-34.5 208.19-33.35 210.39-31.2L210.39-31.2 208.84-28.05Q206.34-30.2 203.76-31.18 201.19-32.15 198.19-32.15L198.19-32.15Q194.09-32.15 191.76-30.43 189.44-28.7 189.44-25.6L189.44-25.6Q189.44-22.95 191.49-21.6 193.54-20.25 197.69-19.3L197.69-19.3Q202.24-18.2 204.84-17.28 207.44-16.35 209.16-14.5 210.89-12.65 210.89-9.55L210.89-9.55Q210.89-6.55 209.31-4.3 207.74-2.05 204.79-0.83 201.84 0.4 197.89 0.4L197.89 0.4ZM230.18 0L226.03 0 226.03-31.75 213.78-31.75 213.78-35.25 242.48-35.25 242.48-31.75 230.18-31.75 230.18 0ZM278.53 0L274.38 0 270.48-9.05 252.08-9.05 248.18 0 243.98 0 259.48-35.25 263.03-35.25 278.53 0ZM261.28-30.5L253.53-12.45 269.03-12.45 261.28-30.5Z" fill="#5cb841" data-fill-palette-color="primary"></path></g></svg></g></svg></g></svg></g></svg></g><g transform="matrix(1,0,0,1,137.71238942562786,0)"><svg viewBox="0 0 120.09522114874426 120.09522114874426" height="120.09522114874426" width="120.09522114874426"><g><svg></svg></g><g id="icon-0"><svg viewBox="0 0 120.09522114874426 120.09522114874426" height="120.09522114874426" width="120.09522114874426"><g><rect width="109.19769182228413" height="109.19769182228413" x="5.448764663230065" y="5.448764663230065" fill="#5cb841" data-fill-palette-color="accent"></rect><rect width="109.19769182228413" height="109.19769182228413" x="1.7763568394002505e-15" y="10.897529326460129" fill="#5cb841" opacity="0.5" data-fill-palette-color="accent"></rect></g><g transform="matrix(1,0,0,1,30.600735267194228,15.567899037800181)"><svg viewBox="0 0 58.8937506143558 88.9594230731439" height="88.9594230731439" width="58.8937506143558"><g><svg xmlns="http://www.w3.org/2000/svg" xmlns:xlink="http://www.w3.org/1999/xlink" version="1.1" x="0" y="0" viewBox="24.761855407245655 5 59.58264309935908 90" enable-background="new 0 0 100 100" xml:space="preserve" width="58.8937506143558" height="88.9594230731439" class="icon-_$-0" data-fill-palette-color="background" id="_$-0"><g fill="#ffffff" data-fill-palette-color="background"><path d="M73.76 35.603C86.875 48 91.5 66.25 65.633 82.379c3.64-4.928 5.654-9.794 6.096-14.669 0.951-10.516-5.606-19.072-12.835-26.752C48.298 29.7 47.51 18.84 56.413 6.782 54.578 22.641 64.6 26.944 73.76 35.603zM45.288 93.716c6.184-13.053 7.276-20.302-8.197-34.939-4.204-3.977-7.451-8.029-9.71-12.086-2.881 6.435-5.164 20.081 3.244 27.935C36.312 79.938 44.125 83.125 45.288 93.716zM56.709 43.014C48.183 33.954 41.999 21.253 54 5 21.497 17.692 19.625 38.125 39.151 56.597 55.603 72.158 54.75 80.75 48 95 79.875 71.5 68.709 55.764 56.709 43.014z" fill="#ffffff" data-fill-palette-color="background"></path></g></svg></g></svg></g></svg></g></svg></g><g></g></svg></g><defs></defs></svg><rect width="395.52" height="184.71331354726303" fill="none" stroke="none" visibility="hidden"></rect></g></svg></g></svg>