<?xml version="1.0" encoding="UTF-8"?>
<!DOCTYPE svg PUBLIC "-//W3C//DTD SVG 1.1//EN" "http://www.w3.org/Graphics/SVG/1.1/DTD/svg11.dtd">
<svg xmlns="http://www.w3.org/2000/svg" version="1.1" width="128px" height="128px" style="shape-rendering:geometricPrecision; text-rendering:geometricPrecision; image-rendering:optimizeQuality; fill-rule:evenodd; clip-rule:evenodd" xmlns:xlink="http://www.w3.org/1999/xlink">
<g><path style="opacity:0.932" fill="#fefffe" d="M 60.5,12.5 C 61.552,12.3505 62.552,12.5172 63.5,13C 53.6212,25.142 53.1212,37.642 62,50.5C 88.1285,74.4814 86.2951,96.1481 56.5,115.5C 56.1667,115.167 55.8333,114.833 55.5,114.5C 63.0698,101.597 61.9031,89.5975 52,78.5C 21.2978,51.8898 24.1311,29.8898 60.5,12.5 Z"/></g>
<g><path style="opacity:0.905" fill="#fefffe" d="M 64.5,14.5 C 65.3764,14.3691 66.0431,14.7025 66.5,15.5C 65.7007,20.6841 66.534,25.6841 69,30.5C 76.6126,38.1126 84.2792,45.7792 92,53.5C 101.625,70.3728 98.7918,84.8728 83.5,97C 80.9655,98.9343 78.2988,100.268 75.5,101C 83.7378,90.0492 84.5711,78.5492 78,66.5C 73.711,60.5422 69.0443,54.8756 64,49.5C 56.6092,37.7381 56.7759,26.0714 64.5,14.5 Z"/></g>
<g><path style="opacity:0.897" fill="#fefffe" d="M 31.5,59.5 C 37.349,66.8585 43.849,73.8585 51,80.5C 60.1643,91.3222 60.831,102.656 53,114.5C 51.9702,111.05 50.6369,107.717 49,104.5C 42.3333,99.1667 36.3333,93.1667 31,86.5C 28.9472,77.4539 29.1139,68.4539 31.5,59.5 Z"/></g>
</svg>
