<?xml version="1.0" encoding="UTF-8"?>
<!DOCTYPE svg PUBLIC "-//W3C//DTD SVG 1.1//EN" "http://www.w3.org/Graphics/SVG/1.1/DTD/svg11.dtd">
<svg xmlns="http://www.w3.org/2000/svg" version="1.1" width="1000px" height="494px" style="shape-rendering:geometricPrecision; text-rendering:geometricPrecision; image-rendering:optimizeQuality; fill-rule:evenodd; clip-rule:evenodd" xmlns:xlink="http://www.w3.org/1999/xlink">
<g><path style="opacity:0.941" fill="#5cb741" d="M 353.5,13.5 C 450.833,13.5 548.167,13.5 645.5,13.5C 645.5,111.167 645.5,208.833 645.5,306.5C 640.833,306.5 636.167,306.5 631.5,306.5C 631.5,311.5 631.5,316.5 631.5,321.5C 533.833,321.5 436.167,321.5 338.5,321.5C 338.5,223.833 338.5,126.167 338.5,28.5C 343.5,28.5 348.5,28.5 353.5,28.5C 353.5,23.5 353.5,18.5 353.5,13.5 Z"/></g>
<g><path style="opacity:1" fill="#fefefd" d="M 495.5,41.5 C 496.239,41.369 496.906,41.5357 497.5,42C 475.01,72.0345 474.844,102.201 497,132.5C 507.753,143.916 517.753,155.916 527,168.5C 541.986,193.372 540.652,217.372 523,240.5C 511.587,255.247 498.254,267.914 483,278.5C 486.89,269.169 490.223,259.502 493,249.5C 496.102,235.235 493.768,221.901 486,209.5C 474.858,193.348 461.858,178.681 447,165.5C 415.335,127.939 418.502,93.7723 456.5,63C 468.951,54.7757 481.951,47.6091 495.5,41.5 Z"/></g>
<g><path style="opacity:1" fill="#fdfefd" d="M 502.5,48.5 C 503.167,52.8333 503.833,57.1667 504.5,61.5C 506.011,77.0232 512.678,89.8565 524.5,100C 537.618,110.118 549.785,121.285 561,133.5C 587.203,168.713 583.703,200.88 550.5,230C 544.282,235.219 537.782,240.052 531,244.5C 533.912,238.677 536.912,232.677 540,226.5C 547.329,205.717 545.663,185.717 535,166.5C 524.626,151.767 513.292,137.767 501,124.5C 483.971,98.8241 484.471,73.4908 502.5,48.5 Z"/></g>
<g><path style="opacity:1" fill="#a6d897" d="M 504.5,61.5 C 503.833,57.1667 503.167,52.8333 502.5,48.5C 502.783,47.7109 503.283,47.0442 504,46.5C 504.499,51.4889 504.666,56.4889 504.5,61.5 Z"/></g>
<g><path style="opacity:1" fill="#fdfefc" d="M 427.5,151.5 C 431.398,157.608 435.564,163.608 440,169.5C 454.089,182.253 466.755,196.253 478,211.5C 484.375,221.282 487.041,231.948 486,243.5C 483.911,254.435 480.245,264.768 475,274.5C 473.947,266.063 470.947,258.396 466,251.5C 454.633,240.465 442.966,229.798 431,219.5C 418.324,197.493 417.157,174.827 427.5,151.5 Z"/></g>
<g><path style="opacity:0.934" fill="#5bb841" d="M 447.5,493.5 C 439.833,493.5 432.167,493.5 424.5,493.5C 397.022,487.517 380.855,470.517 376,442.5C 371.278,418.493 375.278,396.16 388,375.5C 405.592,355.636 427.425,348.802 453.5,355C 476.69,362.192 490.857,377.692 496,401.5C 500.857,424.128 498.19,445.795 488,466.5C 478.342,481.403 464.842,490.403 447.5,493.5 Z M 427.5,363.5 C 460.462,362.287 479.962,377.954 486,410.5C 489.609,432.396 484.609,452.063 471,469.5C 457.149,482.275 440.982,486.441 422.5,482C 405.599,476.099 394.432,464.599 389,447.5C 382.61,425.46 384.943,404.46 396,384.5C 403.851,373.338 414.351,366.338 427.5,363.5 Z"/></g>
<g><path style="opacity:0.929" fill="#5bb841" d="M 727.5,493.5 C 718.833,493.5 710.167,493.5 701.5,493.5C 691.64,491.78 681.973,488.946 672.5,485C 671.205,481.214 671.205,477.38 672.5,473.5C 690.572,482.534 709.572,485.367 729.5,482C 741.114,477.806 747.448,469.472 748.5,457C 746.902,444.394 739.902,436.394 727.5,433C 713.989,429.719 700.989,425.052 688.5,419C 677.378,409.303 673.212,397.137 676,382.5C 678.82,366.346 688.32,356.846 704.5,354C 721.17,351.584 737.003,354.084 752,361.5C 752.667,365.167 752.667,368.833 752,372.5C 736.719,364.314 720.552,361.814 703.5,365C 693.816,368.832 688.316,375.999 687,386.5C 685.487,400.324 691.321,409.491 704.5,414C 717.775,417.567 730.775,421.901 743.5,427C 757.632,437.055 762.465,450.555 758,467.5C 752.854,482.152 742.687,490.819 727.5,493.5 Z"/></g>
<g><path style="opacity:0.942" fill="#5cb741" d="M 52.5,354.5 C 56.1064,354.211 59.6064,354.544 63,355.5C 80.275,400.497 97.4417,445.497 114.5,490.5C 110.5,490.5 106.5,490.5 102.5,490.5C 97.298,475.755 91.798,461.089 86,446.5C 67.2313,445.175 48.3979,445.175 29.5,446.5C 24.0292,460.913 18.3626,475.246 12.5,489.5C 8.5,490.833 4.5,490.833 0.5,489.5C 18.124,444.59 35.4574,399.59 52.5,354.5 Z M 57.5,373.5 C 65.7227,393.633 73.7227,413.966 81.5,434.5C 65.5,435.833 49.5,435.833 33.5,434.5C 41.5079,414.138 49.5079,393.805 57.5,373.5 Z"/></g>
<g><path style="opacity:0.94" fill="#5bb840" d="M 936.5,354.5 C 940.351,353.971 943.851,354.638 947,356.5C 963.872,400.951 981.039,445.285 998.5,489.5C 994.5,490.833 990.5,490.833 986.5,489.5C 980.637,475.246 974.971,460.913 969.5,446.5C 950.842,445.334 932.176,445.167 913.5,446C 907.406,460.684 901.74,475.518 896.5,490.5C 892.5,490.5 888.5,490.5 884.5,490.5C 901.274,444.952 918.608,399.618 936.5,354.5 Z M 940.5,373.5 C 941.117,373.611 941.617,373.944 942,374.5C 949.704,394.737 957.537,414.904 965.5,435C 949.503,435.5 933.503,435.667 917.5,435.5C 925.163,414.845 932.83,394.178 940.5,373.5 Z"/></g>
<g><path style="opacity:0.92" fill="#5bb741" d="M 139.5,355.5 C 156.503,355.333 173.503,355.5 190.5,356C 213.239,357.79 224.572,370.124 224.5,393C 224.311,413.854 213.977,426.188 193.5,430C 206.167,450 218.833,470 231.5,490C 226.798,490.828 222.131,490.662 217.5,489.5C 205.292,469.583 192.959,449.749 180.5,430C 170.506,429.5 160.506,429.334 150.5,429.5C 150.5,449.833 150.5,470.167 150.5,490.5C 146.833,490.5 143.167,490.5 139.5,490.5C 139.5,445.5 139.5,400.5 139.5,355.5 Z M 150.5,365.5 C 162.838,365.333 175.171,365.5 187.5,366C 207.969,368.501 216.136,380.001 212,400.5C 209.486,411.356 202.653,417.523 191.5,419C 177.837,419.5 164.171,419.667 150.5,419.5C 150.5,401.5 150.5,383.5 150.5,365.5 Z"/></g>
<g><path style="opacity:0.922" fill="#5bb741" d="M 261.5,355.5 C 280.87,355.092 300.203,355.592 319.5,357C 334.823,360.324 342.989,369.824 344,385.5C 345.318,395.579 343.318,404.913 338,413.5C 334.79,417.187 330.956,420.021 326.5,422C 341.977,427.488 349.644,438.488 349.5,455C 349.633,476.534 338.967,488.2 317.5,490C 298.836,490.5 280.17,490.667 261.5,490.5C 261.5,445.5 261.5,400.5 261.5,355.5 Z M 272.5,365.5 C 284.505,365.333 296.505,365.5 308.5,366C 325.051,366.216 333.051,374.549 332.5,391C 333.64,403.057 328.64,411.39 317.5,416C 302.558,417.434 287.558,417.934 272.5,417.5C 272.5,400.167 272.5,382.833 272.5,365.5 Z M 272.5,428.5 C 286.504,428.333 300.504,428.5 314.5,429C 333.994,432.519 341.494,444.019 337,463.5C 333.276,473.963 325.776,479.463 314.5,480C 300.504,480.5 286.504,480.667 272.5,480.5C 272.5,463.167 272.5,445.833 272.5,428.5 Z"/></g>
<g><path style="opacity:0.914" fill="#5bb740" d="M 530.5,355.5 C 534.167,355.5 537.833,355.5 541.5,355.5C 541.5,397.167 541.5,438.833 541.5,480.5C 561.5,480.5 581.5,480.5 601.5,480.5C 601.5,483.833 601.5,487.167 601.5,490.5C 577.833,490.5 554.167,490.5 530.5,490.5C 530.5,445.5 530.5,400.5 530.5,355.5 Z"/></g>
<g><path style="opacity:0.897" fill="#5cb740" d="M 628.5,355.5 C 632.167,355.5 635.833,355.5 639.5,355.5C 639.5,400.5 639.5,445.5 639.5,490.5C 635.833,490.5 632.167,490.5 628.5,490.5C 628.5,445.5 628.5,400.5 628.5,355.5 Z"/></g>
<g><path style="opacity:0.891" fill="#5bb840" d="M 778.5,355.5 C 810.167,355.5 841.833,355.5 873.5,355.5C 873.5,359.167 873.5,362.833 873.5,366.5C 859.5,366.5 845.5,366.5 831.5,366.5C 831.5,407.833 831.5,449.167 831.5,490.5C 827.833,490.5 824.167,490.5 820.5,490.5C 820.5,449.167 820.5,407.833 820.5,366.5C 806.5,366.5 792.5,366.5 778.5,366.5C 778.5,362.833 778.5,359.167 778.5,355.5 Z"/></g>
</svg>
